<svg width="220" height="176" viewBox="0 0 220 176" fill="none" xmlns="http://www.w3.org/2000/svg">
<path d="M220 108.79C219.92 118.83 218.62 129.06 214.6 138.06C214.54 138.21 214.47 138.36 214.4 138.51C211.74 144.27 207.99 149.46 203.34 153.79C202.99 154.12 202.63 154.45 202.26 154.78C198.21 158.41 193.63 161.42 188.72 163.85C180.56 167.92 171.53 170.37 162.67 171.43C141.99 173.91 121.06 170.39 100.26 171.48C87.27 172.17 74.38 174.63 61.38 174.98C57.37 175.08 53.32 174.97 49.31 174.53C49.3 174.54 49.29 174.53 49.29 174.53C44.28 174 39.35 172.97 34.64 171.27C30.86 169.92 27.24 168.13 23.84 165.83C20.51 163.54 17.49 160.85 14.84 157.84C14.14 157.05 13.46 156.24 12.82 155.4C8.79 150.19 5.65 144.37 3.51 138.15C-4.78 114.22 2.07 85 19.88 68.36C26.91 61.8 35.29 57.18 43.61 52.73C44.04 52.5 44.46 52.24 44.91 51.95C46.96 50.59 49.18 48.56 51.59 46.11C53.24 44.44 54.98 42.57 56.84 40.59C58.26 39.05 59.75 37.44 61.31 35.79C66.76 30.04 73.07 23.82 80.48 18.63C82.3 17.36 84.18 16.15 86.13 15.03C92.48 11.36 99.59 8.58998 107.57 7.47998C112.5 6.77998 117.77 6.71998 123.41 7.47998C123.68 7.50998 123.95 7.54998 124.22 7.58998C132.61 8.82998 141.8 11.87 151.9 17.3C154.14 18.49 156.42 19.81 158.74 21.26C172.12 29.58 179.04 46.63 190.87 57.41C201.4 67.01 213.35 76.4 217.81 90.57C219.65 96.39 220.05 102.65 220 108.8V108.79Z" fill="#EFF4FE"/>
<path d="M38.05 70.16C38.05 70.16 44.46 40.02 60.58 40.02C76.7 40.02 85.28 87.41 46.06 92.56L38.05 70.16Z" fill="#F4A28C"/>
<path opacity="0.1" d="M38.05 70.16C38.05 70.16 44.46 40.02 60.58 40.02C76.7 40.02 85.28 87.41 46.06 92.56L38.05 70.16Z" fill="black"/>
<path d="M149.9 7.47998H53.59C52.4854 7.47998 51.59 8.37541 51.59 9.47998V129.88C51.59 130.985 52.4854 131.88 53.59 131.88H149.9C151.005 131.88 151.9 130.985 151.9 129.88V9.47998C151.9 8.37541 151.005 7.47998 149.9 7.47998Z" fill="#253746"/>
<path d="M139.83 15.03H63.3C62.1954 15.03 61.3 15.9255 61.3 17.03V119.45C61.3 120.555 62.1954 121.45 63.3 121.45H139.83C140.935 121.45 141.83 120.555 141.83 119.45V17.03C141.83 15.9255 140.935 15.03 139.83 15.03Z" fill="white"/>
<path d="M122.22 0H82.35C81.2454 0 80.35 0.89543 80.35 2V16.62C80.35 17.7246 81.2454 18.62 82.35 18.62H122.22C123.325 18.62 124.22 17.7246 124.22 16.62V2C124.22 0.89543 123.325 0 122.22 0Z" fill="#EEC14D"/>
<path d="M116.27 62.76H98.37C97.8177 62.76 97.37 63.2077 97.37 63.76V66.15C97.37 66.7023 97.8177 67.15 98.37 67.15H116.27C116.822 67.15 117.27 66.7023 117.27 66.15V63.76C117.27 63.2077 116.822 62.76 116.27 62.76Z" fill="#3170F7"/>
<path d="M127.89 71.48H98.37C97.8177 71.48 97.37 71.9277 97.37 72.48V74.87C97.37 75.4223 97.8177 75.87 98.37 75.87H127.89C128.442 75.87 128.89 75.4223 128.89 74.87V72.48C128.89 71.9277 128.442 71.48 127.89 71.48Z" fill="#3170F7"/>
<path d="M116.27 90.97H98.37C97.8177 90.97 97.37 91.4177 97.37 91.97V94.36C97.37 94.9123 97.8177 95.36 98.37 95.36H116.27C116.822 95.36 117.27 94.9123 117.27 94.36V91.97C117.27 91.4177 116.822 90.97 116.27 90.97Z" fill="#3170F7"/>
<path d="M127.89 99.6899H98.37C97.8177 99.6899 97.37 100.138 97.37 100.69V103.08C97.37 103.632 97.8177 104.08 98.37 104.08H127.89C128.442 104.08 128.89 103.632 128.89 103.08V100.69C128.89 100.138 128.442 99.6899 127.89 99.6899Z" fill="#3170F7"/>
<path d="M88.52 32.11H72.54C71.9877 32.11 71.54 32.5577 71.54 33.11V49.09C71.54 49.6423 71.9877 50.09 72.54 50.09H88.52C89.0723 50.09 89.52 49.6423 89.52 49.09V33.11C89.52 32.5577 89.0723 32.11 88.52 32.11Z" fill="#59ED56"/>
<path d="M88.52 60.15H72.54C71.9877 60.15 71.54 60.5977 71.54 61.15V77.13C71.54 77.6823 71.9877 78.13 72.54 78.13H88.52C89.0723 78.13 89.52 77.6823 89.52 77.13V61.15C89.52 60.5977 89.0723 60.15 88.52 60.15Z" fill="#59ED56"/>
<path d="M88.52 88.2H72.54C71.9877 88.2 71.54 88.6477 71.54 89.2V105.18C71.54 105.732 71.9877 106.18 72.54 106.18H88.52C89.0723 106.18 89.52 105.732 89.52 105.18V89.2C89.52 88.6477 89.0723 88.2 88.52 88.2Z" fill="#59ED56"/>
<path d="M77.59 41.07L79.71 44.16L84.1 38.47" stroke="white" stroke-width="4.06" stroke-linecap="round" stroke-linejoin="round"/>
<path d="M77.59 69.07L79.71 72.16L84.1 66.47" stroke="white" stroke-width="4.06" stroke-linecap="round" stroke-linejoin="round"/>
<path opacity="0.1" d="M103.74 89.49L101.09 94.09L110 92.96L119.45 89.52C119.45 89.52 124.29 97.27 132.38 101.86C141.31 106.76 148.17 114.73 151.69 124.29L151.92 124.92V81.97L139.51 68.97L103.73 89.49H103.74Z" fill="#507F99"/>
<path d="M77.59 97.2801L79.71 100.37L84.1 94.6801" stroke="white" stroke-width="4.06" stroke-linecap="round" stroke-linejoin="round"/>
<path d="M150.56 66.6399C150.56 66.6399 140.44 57.5599 125.44 63.8199C113.7 68.7499 119.26 74.5399 125.57 74.2999C131.88 74.0599 142.47 69.75 141.73 80.2299C141.06 89.4599 129.61 76.1899 123.05 76.7099C116.49 77.2299 117.24 84.6899 125.32 88.7799C133.4 92.8699 144.75 101.73 153.59 94.7699C162.43 87.8099 159.9 75.4599 150.56 66.6399Z" fill="#F4A28C"/>
<path d="M164.4 56.99L165.79 59.87C166.27 60.86 165.85 62.06 164.85 62.54L110.01 88.9L106.89 82.41L161.73 56.05C162.72 55.57 163.92 55.99 164.4 56.99Z" fill="#3170F7"/>
<path d="M214.59 138.06C211.92 144.01 208.09 149.35 203.33 153.79C202.98 154.12 202.62 154.45 202.25 154.78C198.2 158.41 193.62 161.42 188.71 163.85L151.92 103.9L151.9 103.86L147.91 97.37L148.03 97.22L151.9 92.35L151.92 92.32L154.17 89.49L159.05 83.36L159.97 82.21C160.73 81.25 162.17 81.2 163 82.1L214.6 138.07L214.59 138.06Z" fill="#3170F7"/>
<path d="M106.88 82.41L99.32 90.22L110 88.9L106.88 82.41Z" fill="#2B549F"/>
<path d="M50.68 58.93C50.68 58.93 63.13 46.21 68.5 47.33C72.94 48.27 72.94 57.09 63.28 64.44C59.31 67.43 56.83 71.99 56.49 76.94C56.22 81.04 54.86 85.93 50.69 89.61C41.92 97.36 35.42 90.61 36.26 80.13C37.1 69.65 37.68 66.56 50.69 58.92L50.68 58.93Z" fill="#F4A28C"/>
<path d="M54 87.49C54.89 87.76 55.48 88.62 55.41 89.55L55.36 90.25L52.36 131.87L49.29 174.52H49.27C44.26 173.99 39.33 172.96 34.62 171.26C30.84 169.91 27.22 168.12 23.82 165.82C20.49 163.53 17.47 160.84 14.82 157.83L31.31 82.86C31.56 81.72 32.73 81.04 33.84 81.38L36.19 82.09L43.07 84.18L44.18 84.52L51.59 86.77L52.93 87.17L54 87.49Z" fill="#3170F7"/>
<path d="M116.27 34.09H98.37C97.8177 34.09 97.37 34.5377 97.37 35.09V37.48C97.37 38.0322 97.8177 38.48 98.37 38.48H116.27C116.822 38.48 117.27 38.0322 117.27 37.48V35.09C117.27 34.5377 116.822 34.09 116.27 34.09Z" fill="#3170F7"/>
<path d="M127.89 42.8H98.37C97.8177 42.8 97.37 43.2478 97.37 43.8V46.19C97.37 46.7423 97.8177 47.19 98.37 47.19H127.89C128.442 47.19 128.89 46.7423 128.89 46.19V43.8C128.89 43.2478 128.442 42.8 127.89 42.8Z" fill="#3170F7"/>
<path opacity="0.1" d="M55.53 87.96L55.36 90.26L52.36 131.88L49.27 174.53C44.26 174 39.33 172.97 34.62 171.27L43.24 92.95L43.94 86.63L44.17 84.52L51.58 86.77L52.92 87.17L55.52 87.96H55.53Z" fill="black"/>
<path opacity="0.1" d="M202.25 154.78C198.2 158.41 193.62 161.42 188.71 163.85L151.92 103.9L151.9 103.86L147.91 97.37L148.03 97.22L151.9 92.35L151.92 92.32L154.17 89.49L156.17 92.2L202.26 154.78H202.25Z" fill="black"/>
</svg>
