<svg width="16" height="17" viewBox="0 0 16 17" fill="none" xmlns="http://www.w3.org/2000/svg">
<g clip-path="url(#clip0_401_745)">
<path d="M4.5 7.00464C6.43437 7.00464 8 5.43901 8 3.50464C8 1.57026 6.43437 0.00463867 4.5 0.00463867C2.56562 0.00463867 1 1.57026 1 3.50464C1 5.43901 2.56562 7.00464 4.5 7.00464ZM4.5 2.00464C5.32812 2.00464 6 2.67651 6 3.50464C6 4.33276 5.32812 5.00464 4.5 5.00464C3.67188 5.00464 3 4.33276 3 3.50464C3 2.67651 3.67188 2.00464 4.5 2.00464ZM11.5 9.00464C9.56563 9.00464 8 10.5703 8 12.5046C8 14.439 9.56563 16.0046 11.5 16.0046C13.4344 16.0046 15 14.439 15 12.5046C15 10.5703 13.4344 9.00464 11.5 9.00464ZM11.5 14.0046C10.6719 14.0046 10 13.3328 10 12.5046C10 11.6765 10.6719 11.0046 11.5 11.0046C12.3281 11.0046 13 11.6765 13 12.5046C13 13.3328 12.3281 14.0046 11.5 14.0046ZM13.2594 0.0108887L14.2469 0.00776367C14.8531 0.00463867 15.2125 0.689014 14.8625 1.18901L3.41875 15.6796C3.34975 15.778 3.25807 15.8584 3.15145 15.9139C3.04484 15.9693 2.92644 15.9983 2.80625 15.9984L1.7625 16.0015C1.15312 16.0015 0.796875 15.3171 1.14687 14.8203L12.6469 0.329639C12.7875 0.129639 13.0156 0.0108887 13.2594 0.0108887Z" fill="#62829C"/>
</g>
<defs>
<clipPath id="clip0_401_745">
<rect width="14" height="16" fill="white" transform="translate(1 0.00463867)"/>
</clipPath>
</defs>
</svg>
