<svg width="274" height="221" viewBox="0 0 274 221" fill="none" xmlns="http://www.w3.org/2000/svg">
<path d="M273.982 130.836C273.885 143.341 272.26 156.078 267.25 167.297C267.173 167.48 267.086 167.674 266.999 167.858C263.691 175.034 259.011 181.494 253.227 186.881C252.792 187.287 252.347 187.703 251.883 188.109C246.844 192.626 241.129 196.388 235.026 199.405H235.016C224.852 204.473 213.604 207.529 202.579 208.854C176.825 211.939 150.751 207.558 124.852 208.912C108.672 209.773 92.6275 212.829 76.4283 213.264C71.438 213.39 66.3896 213.254 61.3993 212.703C61.3896 212.713 61.3703 212.703 61.3703 212.703C55.1324 212.045 48.9912 210.759 43.1304 208.651C38.4302 206.968 33.9138 204.744 29.6778 201.871C25.5386 199.018 21.7668 195.672 18.4689 191.92C17.5985 190.933 16.7475 189.927 15.9544 188.883C10.9448 182.403 7.01826 175.15 4.35869 167.393C-5.97013 137.597 2.56952 101.194 24.7552 80.4785C33.5173 72.3064 43.9428 66.552 54.3103 61.0201C54.8422 60.73 55.3645 60.4108 55.9254 60.053H55.9351C58.4883 58.3606 61.2446 55.8364 64.262 52.7706C66.3123 50.6913 68.4786 48.3702 70.79 45.8944C72.5598 43.9795 74.407 41.9776 76.3509 39.9176C83.1401 32.7513 90.9931 25.0143 100.229 18.5443C102.492 16.9679 104.833 15.4592 107.27 14.0666C115.181 9.50175 124.03 6.03947 133.972 4.65649C140.103 3.78609 146.68 3.70872 153.691 4.65649C154.03 4.69518 154.359 4.74353 154.697 4.79189C165.152 6.33928 176.593 10.1207 189.175 16.8905C191.96 18.3702 194.804 20.0143 197.695 21.8132C214.359 32.1807 222.976 53.4089 237.715 66.8325C250.829 78.7861 265.713 90.4882 271.264 108.128C273.556 115.382 274.049 123.167 273.991 130.836H273.982Z" fill="#EFF4FE"/>
<path d="M156.951 160.856C159.513 158.361 161.428 156.281 161.428 156.281L173.082 155.788V159.637C173.082 159.637 172.724 161.233 170.916 162.374C169.107 163.525 165.558 165.479 163.624 166.175C160.896 167.152 156.032 168.196 153.875 168.283C151.428 168.38 150.374 167.229 151.651 165.972C153.846 163.825 154.581 163.167 156.951 160.856Z" fill="#4D4D4D"/>
<path d="M191.873 161.069L202.386 159.889C202.386 159.889 203.846 166.571 201.399 173.457C198.952 180.343 194.629 180.411 193.111 179.869C191.593 179.328 190.896 174.947 191.167 169.985C191.438 165.024 191.883 161.078 191.883 161.078L191.873 161.069Z" fill="#4D4D4D"/>
<path d="M168.43 73.5443C168.43 73.5443 193.846 65.788 193.227 70.5462C193.227 70.5462 198.875 77.6352 197.966 91.7648C197.55 98.2542 198.111 114.424 198.653 125.566C205.171 140.246 206.457 157.19 206.457 157.19C206.457 157.19 207.453 160.024 202.376 162.558C197.299 165.092 189.891 162.451 189.891 162.451C189.891 162.451 189.891 140.585 184.011 128.186C180.79 121.407 179.929 97.906 179.929 97.906L174.852 123.09L174.397 155.024C174.397 155.024 170.79 158.583 166.409 158.602C160.703 158.622 160.413 155.295 160.413 155.295C160.413 155.295 159.417 127.945 161.689 112.616C163.691 99.1342 168.421 73.5346 168.421 73.5346L168.43 73.5443Z" fill="#253746"/>
<path d="M170.993 26.8035C169.417 28.0897 165.809 31.6487 163.904 34.9273C163.121 36.2619 159.823 42.7416 157.666 47.1806C154.804 47.1613 144.978 46.1362 142.434 46.1362H138.846C138.846 46.1362 139.581 49.5114 138.846 50.6719C138.111 51.8325 137.473 53.9408 137.473 53.9408C137.473 53.9408 140.21 56.4746 145.587 57.6255C150.964 58.7861 159.156 60.788 163.188 58.9988C166.999 57.3064 168.092 47.6352 168.479 46.2038C169.156 40.2851 172.724 30.4205 176.864 26.5907C176.864 26.5907 173.624 24.6565 170.993 26.8035Z" fill="url(#paint0_linear_0_2141)"/>
<path d="M174.813 28.022C174.813 28.022 167.231 34.1438 166.332 42.7899C166.109 44.8788 166.515 52.8479 166.051 59.3276C165.568 66.1554 165.248 70.5945 166.428 72.8576C167.84 75.5462 172.869 78.1961 177.811 79.0761C183.411 80.0723 189.765 78.3798 193.982 77.7512C198.604 74.8208 195.761 70.1496 196.167 67.0742C197.415 57.461 199.291 41.9291 198.953 39.3856C198.382 35.1303 188.74 30.5268 188.74 30.5268C188.74 30.5268 181.902 25.227 174.813 28.022Z" fill="url(#paint1_linear_0_2141)"/>
<path d="M175.867 36.4843L175.335 40.7009C175.335 40.7009 172.966 47.287 172.434 50.227C171.902 53.1671 170.838 65.8847 170.838 65.8847L172.647 70.904L176.187 68.138L177.821 41.8228L180.452 38.6796L177.947 35.7493L175.877 36.4939L175.867 36.4843Z" fill="#E8B679"/>
<path d="M177.521 27.7607L177.067 34.4242C177.067 34.4242 177.947 35.7394 180.19 37.6447C182.599 36.8903 188.188 31.7066 188.188 31.7066L186.322 21.3584L177.521 27.751V27.7607Z" fill="#FFAD97"/>
<path d="M187.357 9.99487C184.852 6.80338 177.647 4.11479 172.956 11.0587C168.034 18.3411 172.686 30.2463 176.999 29.5597C179.417 29.1728 184.852 26.9678 187.231 23.08C189.91 18.6989 189.31 12.4804 187.366 10.0045L187.357 9.99487Z" fill="#FFC5B3"/>
<path d="M177.395 29.5791L177.937 35.7396L173.546 37.5288C173.546 37.5288 173.092 31.0008 177.386 29.5791H177.395Z" fill="url(#paint2_linear_0_2141)"/>
<path d="M187.521 28.022C187.521 28.022 186.032 30.256 183.44 32.7802C181.428 34.7338 177.937 35.7396 177.937 35.7396L179.591 40.6912C179.591 40.6912 185.655 37.9156 187.879 35.4881C187.879 35.4881 190.51 30.9427 187.521 28.022Z" fill="url(#paint3_linear_0_2141)"/>
<path d="M177.482 11.0298C183.982 13.3605 185.626 18.5249 186.438 19.2213C187.357 20.0143 187.221 23.0704 187.221 23.0704C187.221 23.0704 190.693 20.0723 190.684 15.0433C190.684 11.9098 187.937 5.13035 182.202 4.42435C176.467 3.71836 169.939 7.87696 172.453 11.8518C174.165 10.7493 175.732 10.4011 177.482 11.0298Z" fill="#4D4D4D"/>
<path d="M202.773 58.7184C204.233 48.4476 203.624 39.4147 198.034 35.7397C193.972 33.0704 192.705 45.73 191.602 53.8538C191.341 55.8074 189.494 64.7726 189.049 66.9002C186.332 67.5482 177.183 73.2542 175.481 75.4399C175.945 76.3683 177.879 77.3644 178.875 82.935C184.997 81.5811 192.212 80.1884 196.158 75.8654C200.084 71.5714 202.086 63.525 202.773 58.7184Z" fill="url(#paint4_linear_0_2141)"/>
<path d="M156.245 81.4652L170.829 90.0048L158.459 69.028L143.885 60.498L156.245 81.4652Z" fill="#CC8C46"/>
<path d="M170.829 90.0047L172.173 89.1729L159.813 68.2058L158.459 69.0279L170.829 90.0047Z" fill="#D89C55"/>
<path d="M143.885 60.498L145.239 59.6663L159.813 68.2059L158.459 69.028L143.885 60.498Z" fill="#E8B470"/>
<path d="M177.995 81.4939C177.995 81.4939 176.099 83.4669 174.842 84.2212C170.838 86.61 167.647 86.4843 166.351 86.2425C163.314 85.6816 160.113 83.2348 159.185 81.7261C158.459 80.5558 158.624 79.6564 159.813 78.8634C161.312 77.8576 164.388 79.2599 166.245 79.1052C165.626 78.3411 165.626 78.051 165.2 77.3353C166.825 76.7357 171.757 77.432 171.757 77.432C171.757 77.432 177.715 75.5655 178.005 81.5036L177.995 81.4939Z" fill="#FFC5B3"/>
<path d="M189.862 50.2657L182.289 47.1033C182.289 47.1033 179.978 54.6081 184.852 56.6004C189.958 58.6893 189.862 50.2657 189.862 50.2657Z" fill="url(#paint5_linear_0_2141)"/>
<path d="M172.831 43.5443L167.502 40.9331C167.502 40.9331 165.655 48.4379 169.069 49.6372C171.786 50.5946 172.821 43.5443 172.821 43.5443H172.831Z" fill="url(#paint6_linear_0_2141)"/>
<path d="M175.49 75.4399C175.49 75.4399 177.328 76.3007 178.421 79.1053C179.513 81.9003 178.885 82.9351 178.885 82.9351L174.891 84.5599C174.891 84.5599 174.571 81.7842 173.788 79.937C173.082 78.2736 171.747 77.4225 171.747 77.4225L175.49 75.4399Z" fill="white"/>
<path d="M187.366 8.38002C192.183 10.2852 193.237 14.0957 189.717 16.881C186.196 19.6663 179.446 20.3723 174.629 18.4671C169.813 16.5618 168.759 12.7514 172.279 9.9661C175.8 7.1808 182.55 6.4748 187.366 8.38002Z" fill="url(#paint7_linear_0_2141)"/>
<path d="M170.248 14.1053C170.248 14.1053 168.208 1.73584 178.914 0.159439C191.39 -1.67809 191.786 12.9738 191.786 12.9738L170.248 14.1053Z" fill="url(#paint8_linear_0_2141)"/>
<path d="M170.084 12.2773C170.084 12.2773 164.881 17.1419 171.187 19.8692C181.883 24.4824 190.626 16.0007 190.626 16.0007C190.626 16.0007 179.262 18.7087 173.498 16.1845C169.591 14.4727 170.084 12.287 170.084 12.287V12.2773Z" fill="url(#paint9_linear_0_2141)"/>
<path d="M180.519 0.894398C178.894 1.84217 178.169 2.9737 177.221 5.27544C176.274 7.57718 177.057 9.78221 179.349 11.1265C181.641 12.4708 183.227 14.7629 183.227 14.7629C183.227 14.7629 183.566 12.1517 181.573 10.4979C179.591 8.83444 177.734 7.98337 178.875 5.28511C180.277 1.9679 184.871 0.739659 184.871 0.739659C184.871 0.739659 183.305 -0.720689 180.519 0.904069V0.894398Z" fill="url(#paint10_linear_0_2141)"/>
<path d="M178.904 0.159424C178.904 0.159424 175.838 1.35865 174.61 3.29289C174.02 4.22132 174.059 7.40314 173.508 8.19617C172.956 8.98921 170.094 11.2813 170.094 11.2813C170.094 11.2813 169.233 10.4786 170.306 9.01822C171.38 7.56755 172.686 7.44182 172.802 5.27548C172.879 3.8248 172.144 0.584956 178.914 0.169095L178.904 0.159424Z" fill="url(#paint11_linear_0_2141)"/>
<path d="M138.14 46.5617C138.14 46.5617 133.111 45.1981 129.794 44.8209C126.477 44.4437 125.906 44.5404 125.239 44.9176C124.571 45.2948 125.519 45.8654 126.467 46.0588C127.415 46.2522 127.318 47.1033 126.747 47.2871C126.177 47.4708 123.237 47.5675 120.587 49.0859C117.927 50.6043 119.591 52.1807 122.057 53.3992C124.523 54.6178 130.403 52.8286 132.676 52.2097C134.804 51.6391 137.134 52.877 137.134 52.877C137.134 52.877 139.078 49.908 138.13 46.5521L138.14 46.5617Z" fill="#FFC5B3"/>
<path d="M140.219 46.1363C140.219 46.1363 140.539 48.5638 140.219 50.353C139.9 52.1421 138.314 54.5793 138.314 54.5793L135.161 52.4613C135.161 52.4613 135.935 50.8268 136.428 49.2021C137.038 47.2001 136.535 45.7205 136.535 45.7205L140.219 46.146V46.1363Z" fill="#DDDDDD"/>
<path d="M166.322 177.394L108.73 210.672L110.529 211.804L168.285 178.448L166.322 177.394Z" fill="#E06F22"/>
<path d="M168.285 178.438L110.529 211.794V220.005L168.285 186.658V178.438Z" fill="#AF4C09"/>
<path d="M108.73 218.98V210.672L110.529 211.794V220.005L108.73 218.98Z" fill="#C65C14"/>
<path d="M102.028 140.102L44.4457 173.38L46.2446 174.512L104.001 141.156L102.028 140.102Z" fill="#E06F22"/>
<path d="M104.001 141.156L46.2446 174.502V182.722L104.001 149.367V141.156Z" fill="#AF4C09"/>
<path d="M44.4457 181.688V173.38L46.2446 174.502V182.722L44.4457 181.688Z" fill="#C65C14"/>
<path d="M133.246 157.829L75.6546 191.107L77.4535 192.239L135.21 158.883L133.246 157.829Z" fill="#E06F22"/>
<path d="M135.21 158.873L77.4535 192.229V200.45L135.21 167.094V158.873Z" fill="#AF4C09"/>
<path d="M75.6546 199.415V191.107L77.4535 192.229V200.45L75.6546 199.415Z" fill="#C65C14"/>
<path d="M110.529 209.28L44.4457 171.127V173.777L110.529 211.939V209.28Z" fill="#C65C14"/>
<path d="M117.453 205.401L110.529 209.279L44.4457 171.127L51.3413 167.249L117.453 205.401Z" fill="#E06F22"/>
<path d="M117.453 205.401L110.529 209.28V214.231L117.453 210.198V205.401Z" fill="#AF4C09"/>
<path d="M123.421 201.688L57.144 163.37V166.02L123.421 204.337V201.688Z" fill="#C65C14"/>
<path d="M130.345 197.809L123.421 201.688L57.144 163.37L64.0395 159.492L130.345 197.809Z" fill="#E06F22"/>
<path d="M130.345 197.809L123.421 201.687V206.639L130.345 202.606V197.809Z" fill="#AF4C09"/>
<path d="M136.612 194.202L70.1904 155.808V158.467L136.612 196.862V194.202Z" fill="#C65C14"/>
<path d="M143.537 190.334L136.612 194.202L70.1904 155.808L77.0763 151.939L143.537 190.334Z" fill="#E06F22"/>
<path d="M143.537 190.334L136.612 194.202V199.154L143.537 195.121V190.334Z" fill="#AF4C09"/>
<path d="M149.504 186.61L83.2272 148.458V151.117L149.504 189.27V186.61Z" fill="#C65C14"/>
<path d="M156.428 182.742L149.504 186.61L83.2272 148.457L90.1227 144.579L156.428 182.742Z" fill="#E06F22"/>
<path d="M156.428 182.742L149.504 186.61V191.562L156.428 187.529V182.742Z" fill="#AF4C09"/>
<path d="M161.361 179.947L94.9293 141.63V144.289L161.361 182.606V179.947Z" fill="#C65C14"/>
<path d="M168.285 176.078L161.361 179.947L94.9293 141.63L101.825 137.751L168.285 176.078Z" fill="#E06F22"/>
<path d="M168.285 176.078L161.361 179.947V184.898L168.285 180.875V176.078Z" fill="#AF4C09"/>
<path d="M81.6411 187.558L81.6314 151.552L110.403 134.918V170.885L81.6411 187.558Z" fill="#DBA763"/>
<path d="M81.6411 187.558L81.6314 151.552L52.8596 134.918V170.885L81.6411 187.558Z" fill="#E8B679"/>
<path d="M56.5927 168.487V140.846L55.7513 140.353V169.105L78.7591 182.432V181.33L56.5927 168.487Z" fill="#CC8C46"/>
<path d="M78.7591 181.33L78.7494 153.651L56.5927 140.846V168.486L78.7591 181.33Z" fill="#DBA763"/>
<path d="M70.3838 174.347L76.554 177.926V168.622L70.3838 165.053V174.347Z" fill="white"/>
<path d="M106.68 168.487V140.846L107.521 140.353V169.105L84.5134 182.432V181.33L106.68 168.487Z" fill="#BF7E3D"/>
<path d="M84.5134 181.33L84.5231 153.651L106.68 140.846V168.486L84.5134 181.33Z" fill="#CC8C46"/>
<path d="M52.8596 134.918L81.6314 151.552L110.403 134.918L81.6411 118.293L52.8596 134.918Z" fill="#FFE1C0"/>
<path d="M104.436 135.256L105.384 134.705L81.6508 120.981L57.8983 134.705L58.8558 135.256L81.6508 122.084L104.436 135.256Z" fill="#DBA763"/>
<path d="M104.436 135.256L81.6508 122.084L58.8558 135.256L81.6411 148.428L104.436 135.256Z" fill="#E8B679"/>
<path d="M100.684 147.181V156.484L105.432 153.728V144.444L100.684 147.181Z" fill="#4D4D4D"/>
<path d="M93.643 151.175V160.469L98.3916 157.722V148.428L93.643 151.175Z" fill="#4D4D4D"/>
<path d="M134.136 192.868L134.127 156.852L162.898 140.227V176.194L134.136 192.868Z" fill="#DBA763"/>
<path d="M134.136 192.868L134.127 156.852L105.355 140.227V176.194L134.136 192.868Z" fill="#E8B679"/>
<path d="M109.088 173.796V146.146L108.247 145.662V174.405L131.245 187.732V186.629L109.088 173.796Z" fill="#CC8C46"/>
<path d="M131.245 186.63L131.235 158.951L109.088 146.146V173.796L131.245 186.63Z" fill="#DBA763"/>
<path d="M122.869 179.647L129.049 183.225V173.931L122.869 170.363V179.647Z" fill="white"/>
<path d="M159.165 173.796V146.146L160.007 145.662V174.405L137.009 187.732V186.629L159.165 173.796Z" fill="#BF7E3D"/>
<path d="M137.009 186.63L137.018 158.951L159.165 146.146V173.796L137.009 186.63Z" fill="#CC8C46"/>
<path d="M105.355 140.227L134.127 156.852L162.898 140.227L134.136 123.593L105.355 140.227Z" fill="#FFE1C0"/>
<path d="M156.922 140.566L157.879 140.014L134.146 126.291L110.394 140.014L111.341 140.566L134.146 127.394L156.922 140.566Z" fill="#DBA763"/>
<path d="M156.922 140.566L134.146 127.394L111.341 140.566L134.136 153.738L156.922 140.566Z" fill="#E8B679"/>
<path d="M153.179 152.49V161.784L157.927 159.038V149.744L153.179 152.49Z" fill="#4D4D4D"/>
<path d="M146.138 156.484V165.778L150.887 163.022V153.738L146.138 156.484Z" fill="#4D4D4D"/>
<path d="M103.072 149.579L103.063 113.573L131.835 96.939V132.906L103.072 149.579Z" fill="#DBA763"/>
<path d="M103.072 149.579L103.063 113.573L74.291 96.939V132.906L103.072 149.579Z" fill="#E8B679"/>
<path d="M78.0241 130.508V102.867L77.1827 102.374V131.127L100.181 144.444V143.351L78.0241 130.508Z" fill="#CC8C46"/>
<path d="M100.181 143.351L100.171 115.672L78.0241 102.867V130.508L100.181 143.351Z" fill="#DBA763"/>
<path d="M91.8055 136.368L97.9854 139.947L97.9757 130.643L91.8055 127.074V136.368Z" fill="white"/>
<path d="M128.101 130.508V102.867L128.943 102.374V131.127L105.945 144.444V143.351L128.101 130.508Z" fill="#BF7E3D"/>
<path d="M105.945 143.351L105.954 115.672L128.101 102.867V130.508L105.945 143.351Z" fill="#CC8C46"/>
<path d="M74.291 96.939L103.063 113.573L131.835 96.939L103.072 80.3142L74.291 96.939Z" fill="#FFE1C0"/>
<path d="M125.858 97.2773L126.815 96.7261L103.082 83.0027L79.3297 96.7261L80.2774 97.2773L103.082 84.1052L125.858 97.2773Z" fill="#DBA763"/>
<path d="M125.858 97.2774L103.082 84.1052L80.2775 97.2774L103.072 110.45L125.858 97.2774Z" fill="#E8B679"/>
<path d="M122.115 109.202V118.496L126.864 115.749V106.465L122.115 109.202Z" fill="#4D4D4D"/>
<path d="M115.074 113.196V122.49L119.823 119.744V110.45L115.074 113.196Z" fill="#4D4D4D"/>
<defs>
<linearGradient id="paint0_linear_0_2141" x1="137.473" y1="42.7512" x2="176.864" y2="42.7512" gradientUnits="userSpaceOnUse">
<stop stop-color="#001D9B"/>
<stop offset="1" stop-color="#0042BB"/>
</linearGradient>
<linearGradient id="paint1_linear_0_2141" x1="165.616" y1="53.3024" x2="198.991" y2="53.3024" gradientUnits="userSpaceOnUse">
<stop stop-color="#001D9B"/>
<stop offset="1" stop-color="#0042BB"/>
</linearGradient>
<linearGradient id="paint2_linear_0_2141" x1="173.537" y1="33.554" x2="177.937" y2="33.554" gradientUnits="userSpaceOnUse">
<stop stop-color="#1E99F7"/>
<stop offset="1" stop-color="#3170F7"/>
</linearGradient>
<linearGradient id="paint3_linear_0_2141" x1="177.937" y1="34.3566" x2="188.943" y2="34.3566" gradientUnits="userSpaceOnUse">
<stop stop-color="#1E99F7"/>
<stop offset="1" stop-color="#3170F7"/>
</linearGradient>
<linearGradient id="paint4_linear_0_2141" x1="175.49" y1="59.1536" x2="203.45" y2="59.1536" gradientUnits="userSpaceOnUse">
<stop stop-color="#001D9B"/>
<stop offset="1" stop-color="#0042BB"/>
</linearGradient>
<linearGradient id="paint5_linear_0_2141" x1="181.747" y1="52.0259" x2="189.862" y2="52.0259" gradientUnits="userSpaceOnUse">
<stop stop-color="#1E99F7"/>
<stop offset="1" stop-color="#3170F7"/>
</linearGradient>
<linearGradient id="paint6_linear_0_2141" x1="167.009" y1="45.3335" x2="172.831" y2="45.3335" gradientUnits="userSpaceOnUse">
<stop stop-color="#1E99F7"/>
<stop offset="1" stop-color="#3170F7"/>
</linearGradient>
<linearGradient id="paint7_linear_0_2141" x1="170.2" y1="13.4187" x2="191.796" y2="13.4187" gradientUnits="userSpaceOnUse">
<stop stop-color="#1E99F7"/>
<stop offset="1" stop-color="#3170F7"/>
</linearGradient>
<linearGradient id="paint8_linear_0_2141" x1="170.094" y1="7.05499" x2="191.786" y2="7.05499" gradientUnits="userSpaceOnUse">
<stop stop-color="#1E99F7"/>
<stop offset="1" stop-color="#3170F7"/>
</linearGradient>
<linearGradient id="paint9_linear_0_2141" x1="168.072" y1="16.7648" x2="190.635" y2="16.7648" gradientUnits="userSpaceOnUse">
<stop stop-color="#314FF7"/>
<stop offset="1" stop-color="#1E72F7"/>
</linearGradient>
<linearGradient id="paint10_linear_0_2141" x1="176.825" y1="7.44179" x2="184.871" y2="7.44179" gradientUnits="userSpaceOnUse">
<stop stop-color="#314FF7"/>
<stop offset="1" stop-color="#1E72F7"/>
</linearGradient>
<linearGradient id="paint11_linear_0_2141" x1="169.765" y1="5.72035" x2="178.904" y2="5.72035" gradientUnits="userSpaceOnUse">
<stop stop-color="#314FF7"/>
<stop offset="1" stop-color="#1E72F7"/>
</linearGradient>
</defs>
</svg>
